<svg xmlns="http://www.w3.org/2000/svg" xmlns:xlink="http://www.w3.org/1999/xlink" id="Layer_1" width="512" height="512" x="0" y="0" enable-background="new 0 0 512 512" version="1.1" viewBox="0 0 512 512" xml:space="preserve"><style type="text/css">.st0{fill:#db9c2e}.st1{fill:#bf6c0d}.st2{fill:#f9bb32}.st3{fill:#fce575}.st4{fill:#ffd551}.st5{fill:#ffc34c}.st8{fill:#fff4c1}.st10{fill:#ff624b}.st12{fill:#8c4c17}.st15{fill:#fcf9de}.st17{fill:#a56021}.st18{fill:#ff4b34}.st19{fill:#ff9079}.st23{fill:#ffea63}</style><g><g><g><path d="M265.325,46h-18.651c-15.657,0-28.349,12.692-28.349,28.35v53.04h75.349V74.35 C293.675,58.692,280.982,46,265.325,46z M256,86.182c-7.765,0-14.061-6.295-14.061-14.061S248.235,58.061,256,58.061 s14.061,6.295,14.061,14.061S263.765,86.182,256,86.182z" class="st2"/></g></g><g><g><g><path d="M267,46.054c-0.554-0.033-1.112-0.054-1.675-0.054h-18.651c-15.657,0-28.349,12.692-28.349,28.35v53.04h22 V74.35C240.325,59.255,252.123,46.921,267,46.054z" class="st0"/></g></g></g><g><g><path d="M452.313,466H59.687c-16.569,0-30-13.431-30-30V140.797c0-16.569,13.431-30,30-30h392.627 c16.569,0,30,13.431,30,30V436C482.313,452.569,468.882,466,452.313,466z" class="st17"/></g></g><g><g><path d="M89.687,436V140.797c0-16.568,13.431-30,30-30h-60c-16.569,0-30,13.432-30,30V436c0,16.568,13.431,30,30,30 h60C103.118,466,89.687,452.568,89.687,436z" class="st12"/></g></g><g><g><path d="M443.899,434.977V141.821c0-5.945-8.541-10.765-19.077-10.765H87.178c-10.536,0-19.077,4.819-19.077,10.765 v239.024l110.641,64.897h246.081C435.358,445.741,443.899,440.922,443.899,434.977z" class="st8"/></g></g><g><g><path d="M261,402.366h-82.833c-2.209,0-4-1.791-4-4V159.667c0-2.209,1.791-4,4-4H261c2.209,0,4,1.791,4,4v238.699 C265,400.575,263.209,402.366,261,402.366z M182.167,394.366H257V163.667h-74.833V394.366z" class="st12"/></g></g><g><g><path d="M343.833,402.366H261c-2.209,0-4-1.791-4-4V159.667c0-2.209,1.791-4,4-4h82.833c2.209,0,4,1.791,4,4 v238.699C347.833,400.575,346.042,402.366,343.833,402.366z M265,394.366h74.833V163.667H265V394.366z" class="st12"/></g></g><g><g><g><path d="M303.304,170.831c7.206,0,13.676,2.691,17.985,7.8c2.071,2.454,0.388,6.203-2.823,6.203h-0.56 c-1.281,0-2.435-0.68-3.159-1.737c-2.583-3.77-6.577-5.565-11.443-5.565c-9.246,0-15.946,6.566-15.946,17.085 c0,10.52,6.7,17.152,15.946,17.152c4.866,0,8.86-1.795,11.443-5.565c0.724-1.057,1.878-1.737,3.159-1.737h0.551 c3.215,0,4.898,3.758,2.819,6.209c-4.31,5.079-10.773,7.727-17.971,7.727c-13.132,0-23.786-9.782-23.786-23.786 C279.518,180.681,290.172,170.831,303.304,170.831z" class="st1"/></g></g></g><g><g><path d="M87.178,131.056c-10.536,0-19.077,4.819-19.077,10.765v239.023l21.586,12.662V140.797 c0-3.411,0.577-6.686,1.626-9.741H87.178z" class="st3"/></g></g><g><g><path d="M411.667,402.366h-67.834c-2.209,0-4-1.791-4-4V159.667c0-2.209,1.791-4,4-4h67.834 c10.477,0,19,8.523,19,19v208.699C430.667,393.843,422.144,402.366,411.667,402.366z M347.833,394.366h63.834 c6.065,0,11-4.935,11-11V174.667c0-6.065-4.935-11-11-11h-63.834V394.366z" class="st12"/></g></g><g><g><path d="M324,369h-48.939c-2.209,0-4-1.791-4-4s1.791-4,4-4H324c2.209,0,4,1.791,4,4S326.209,369,324,369z" class="st1"/></g></g><g><g><path d="M426.667,233.667H95.333c-2.209,0-4-1.791-4-4v-55c0-10.477,8.523-19,19-19h301.333 c10.477,0,19,8.523,19,19v55C430.667,231.876,428.876,233.667,426.667,233.667z M99.333,225.667h323.333v-51 c0-6.065-4.935-11-11-11H110.333c-6.065,0-11,4.935-11,11V225.667z" class="st12"/></g></g><g><g><path d="M178.167,402.366h-58.201c-0.688,0-1.363-0.177-1.962-0.515l-24.632-13.869 c-1.259-0.708-2.038-2.041-2.038-3.485V174.066c0-10.145,8.523-18.399,19-18.399h67.833c2.209,0,4,1.791,4,4v238.699 C182.167,400.575,180.375,402.366,178.167,402.366z M121.014,394.366h53.152V163.667h-63.833c-6.065,0-11,4.665-11,10.399 v208.093L121.014,394.366z" class="st12"/></g></g><g><g><g><path d="M221.69,218h-14.885c-2.066,0-3.741-1.675-3.741-3.741v-39.084c0-2.066,1.675-3.741,3.741-3.741h14.014 c9.85,0,15.076,5.428,15.076,11.994c0,3.29-1.168,5.824-3.035,7.683c-1.532,1.525-1.511,4.009,0.102,5.449 c2.414,2.154,4.004,5.413,4.004,8.911C236.967,212.573,231.205,218,221.69,218z M220.149,177.665h-5.706 c-2.066,0-3.741,1.675-3.741,3.741v5.851c0,2.066,1.675,3.741,3.741,3.741h5.706c4.958,0,7.973-2.345,7.973-6.633 C228.123,180.145,225.107,177.665,220.149,177.665z M220.752,197.229h-6.309c-2.066,0-3.741,1.675-3.741,3.741v7.057 c0,2.066,1.675,3.741,3.741,3.741h6.577c5.159,0,8.308-2.612,8.308-7.102C229.329,200.044,225.845,197.229,220.752,197.229z" class="st1"/></g></g></g><g><g><path d="M238.233,295.628c-1.058,0-2.114-0.417-2.9-1.245l-37.298-39.256c-1.521-1.602-1.457-4.133,0.145-5.655 c1.602-1.521,4.133-1.457,5.655,0.145l37.298,39.256c1.521,1.602,1.457,4.133-0.145,5.655 C240.214,295.263,239.223,295.628,238.233,295.628z" class="st18"/></g></g><g><g><path d="M200.934,295.628c-0.99,0-1.981-0.365-2.755-1.1c-1.602-1.522-1.666-4.054-0.145-5.655l37.298-39.256 c1.522-1.602,4.054-1.666,5.655-0.145c1.602,1.522,1.666,4.054,0.145,5.655l-37.298,39.256 C203.047,295.21,201.991,295.628,200.934,295.628z" class="st18"/></g></g><g><g><path d="M322.233,295.628c-1.059,0-2.114-0.417-2.9-1.245l-37.298-39.256c-1.522-1.602-1.457-4.134,0.145-5.655 c1.601-1.522,4.134-1.457,5.654,0.145l37.298,39.256c1.522,1.602,1.457,4.134-0.145,5.655 C324.214,295.263,323.223,295.628,322.233,295.628z" class="st18"/></g></g><g><g><path d="M284.934,295.628c-0.989,0-1.98-0.365-2.754-1.1c-1.602-1.521-1.667-4.054-0.145-5.655l37.298-39.256 c1.521-1.6,4.054-1.667,5.654-0.145c1.602,1.521,1.667,4.054,0.145,5.655l-37.298,39.256 C287.048,295.21,285.992,295.628,284.934,295.628z" class="st18"/></g></g><g><g><path d="M238.233,385.628c-1.058,0-2.114-0.417-2.9-1.245l-37.298-39.256c-1.521-1.602-1.457-4.133,0.145-5.655 c1.602-1.521,4.133-1.457,5.655,0.145l37.298,39.256c1.521,1.602,1.457,4.133-0.145,5.655 C240.214,385.263,239.223,385.628,238.233,385.628z" class="st18"/></g></g><g><g><path d="M200.934,385.628c-0.99,0-1.981-0.365-2.755-1.1c-1.602-1.522-1.666-4.054-0.145-5.655l37.298-39.256 c1.522-1.602,4.054-1.666,5.655-0.145c1.602,1.522,1.666,4.054,0.145,5.655l-37.298,39.256 C203.047,385.21,201.991,385.628,200.934,385.628z" class="st18"/></g></g><g><g><g><path d="M355.533,352.45l-19.45,68.115l0.207,1.103l5.712,20.625c0.685,2.475,3.25,3.213,5.137,1.479l16.593-15.247 l19.45-68.115L355.533,352.45z" class="st8"/></g></g><g><g><path d="M347.846,424.854l-0.207-1.103l19.413-67.984l-11.519-3.317l-19.45,68.115l0.207,1.103l5.712,20.625 c0.685,2.474,3.25,3.213,5.137,1.479l4.741-4.356L347.846,424.854z" class="st3"/></g></g><g><g><path d="M339.587,433.574l2.415,8.719c0.685,2.475,3.25,3.213,5.137,1.479l6.649-6.11L339.587,433.574z" class="st17"/></g></g><g><g><path d="M374.115,395.514l-29.418-8.47c-2.708-0.78-4.205-3.854-3.344-6.868l76.183-266.793 c3.281-11.489,14.308-18.394,24.631-15.422l1.842,0.53c10.323,2.972,16.031,14.695,12.75,26.184l-76.183,266.793 C379.716,394.483,376.823,396.294,374.115,395.514z" class="st3"/></g></g><g><g><path d="M362.477,391.946c-2.708-0.779-4.205-3.854-3.344-6.868l76.183-266.793 c2.354-8.242,8.699-14.1,15.906-15.67c-2.021-1.883-4.443-3.325-7.213-4.123l-1.842-0.53 c-10.323-2.972-21.35,3.933-24.631,15.422l-76.183,266.793c-0.86,3.014,0.637,6.088,3.344,6.868l29.418,8.47 c0.452,0.13,0.909,0.182,1.361,0.174L362.477,391.946z" class="st4"/></g></g><g><g><path d="M374.527,245.632l-4.56-1.313c-5.873-1.691-9.121-8.361-7.254-14.897l18.42-64.508 c1.867-6.537,8.141-10.465,14.014-8.774l4.56,1.313c5.873,1.691,9.121,8.361,7.254,14.897l-18.42,64.508 C386.674,243.394,380.4,247.323,374.527,245.632z" class="st5"/></g></g><g><g><path d="M398.279,303.061l-25.284-7.28c-7.341-2.114-11.401-10.451-9.068-18.622l34.754-121.707 c2.333-8.171,10.176-13.081,17.517-10.968l25.284,7.28c7.341,2.114,11.401,10.451,9.068,18.622l-34.754,121.707 C413.462,300.265,405.62,305.175,398.279,303.061z" class="st10"/></g></g><g><g><path d="M392.445,301.144c-7.341-2.114-11.401-10.451-9.068-18.622l34.754-121.707 c2.093-7.33,8.62-12.018,15.241-11.383l-17.282-4.976c-7.341-2.114-15.184,2.797-17.517,10.968L363.82,277.131 c-2.333,8.171,1.727,16.508,9.068,18.622l25.284,7.279c0.756,0.218,1.516,0.343,2.276,0.416L392.445,301.144z" class="st18"/></g></g><g><g><path d="M447.306,157.087l-37.401-10.31c-2.928-0.807-4.648-3.835-3.841-6.764l0.757-2.745 c0.807-2.928,3.835-4.648,6.764-3.841l37.401,10.31c2.928,0.807,4.648,3.835,3.841,6.764l-0.757,2.745 C453.263,156.175,450.234,157.895,447.306,157.087z" class="st4"/></g></g><g><g><path d="M424.771,145.023l0.681-2.472c0.828-3.004,3.688-4.835,6.389-4.091l-18.669-5.146 c-2.7-0.744-5.561,1.087-6.389,4.091l-0.681,2.472c-0.828,3.004,0.69,6.042,3.39,6.787l18.669,5.146 C425.461,151.066,423.943,148.027,424.771,145.023z" class="st5"/></g></g><g><g><path d="M429.687,205.047c-0.528,0-1.064-0.07-1.599-0.217c-3.194-0.88-5.07-4.184-4.189-7.378l3.135-11.372 c0.881-3.195,4.185-5.069,7.379-4.19c3.194,0.88,5.07,4.184,4.189,7.378l-3.135,11.372 C434.733,203.301,432.318,205.047,429.687,205.047z" class="st19"/></g></g><g><g><path d="M407.178,286.698c-0.527,0-1.063-0.07-1.598-0.217c-3.194-0.88-5.07-4.184-4.189-7.379l18.146-65.83 c0.881-3.194,4.184-5.068,7.379-4.189c3.194,0.88,5.07,4.184,4.189,7.378l-18.146,65.83 C412.226,284.952,409.811,286.698,407.178,286.698z" class="st19"/></g></g></g><g><g><path d="M307.758,164.081H204.242c-8.284,0-15-6.716-15-15v-37.672c0-8.284,6.716-15,15-15h103.516 c8.284,0,15,6.716,15,15v37.672C322.758,157.365,316.042,164.081,307.758,164.081z" class="st4"/></g></g><g><g><path d="M178.742,445.741L68.101,380.844h87.749c12.643,0,22.892,5.783,22.892,12.917V445.741z" class="st15"/></g></g><g><g><polygon points="85.269 390.915 89.687 393.506 89.687 380.845 68.102 380.845" class="st8"/></g></g><g><g><g><path d="M144.489,208.485h-14.2c-1.587,0-3.002,1.002-3.529,2.499l-1.591,4.517 c-0.527,1.497-1.942,2.499-3.529,2.499h-0.012c-2.588,0-4.394-2.565-3.522-5.001l14.007-39.151 c0.532-1.488,1.942-2.481,3.522-2.481h3.574c1.58,0,2.99,0.993,3.523,2.481l14.006,39.151c0.872,2.437-0.935,5.001-3.523,5.001 h-0.079c-1.587,0-3.002-1.002-3.529-2.499l-1.591-4.517C147.49,209.487,146.076,208.485,144.489,208.485z M133.879,190.653 l-2.335,6.616c-0.859,2.434,0.947,4.986,3.528,4.986h4.649c2.577,0,4.382-2.544,3.531-4.977l-2.314-6.616 C139.771,187.327,135.055,187.32,133.879,190.653z" class="st1"/></g></g></g><g><g><path d="M157.233,295.628c-1.058,0-2.114-0.417-2.9-1.245l-37.298-39.256c-1.521-1.602-1.457-4.133,0.145-5.655 c1.601-1.521,4.133-1.457,5.655,0.145l37.298,39.256c1.521,1.602,1.457,4.133-0.145,5.655 C159.214,295.263,158.223,295.628,157.233,295.628z" class="st18"/></g></g><g><g><path d="M119.934,295.628c-0.99,0-1.981-0.365-2.755-1.1c-1.602-1.522-1.666-4.054-0.145-5.655l37.298-39.256 c1.521-1.602,4.054-1.666,5.655-0.145c1.602,1.522,1.666,4.054,0.145,5.655l-37.298,39.256 C122.047,295.21,120.991,295.628,119.934,295.628z" class="st18"/></g></g><g><g><path d="M157.233,385.628c-1.058,0-2.114-0.417-2.9-1.245l-37.298-39.256c-1.521-1.602-1.457-4.133,0.145-5.655 c1.601-1.521,4.133-1.457,5.655,0.145l37.298,39.256c1.521,1.602,1.457,4.133-0.145,5.655 C159.214,385.263,158.223,385.628,157.233,385.628z" class="st18"/></g></g><g><g><path d="M119.934,385.628c-0.99,0-1.981-0.365-2.755-1.1c-1.602-1.522-1.666-4.054-0.145-5.655l37.298-39.256 c1.521-1.602,4.054-1.666,5.655-0.145c1.602,1.522,1.666,4.054,0.145,5.655l-37.298,39.256 C122.047,385.21,120.991,385.628,119.934,385.628z" class="st18"/></g></g><g><g><path d="M229.242,149.081v-37.673c0-8.284,6.716-15,15-15h-40c-8.284,0-15,6.716-15,15v37.673 c0,8.284,6.716,15,15,15h40C235.958,164.081,229.242,157.365,229.242,149.081z" class="st5"/></g></g><g><g><circle cx="250.594" cy="137.381" r="15.815" class="st5"/></g></g><g><g><path d="M460.686,255.372c-3.313,0-6-2.687-6-6v-16.368c0-3.313,2.687-6,6-6s6,2.687,6,6v16.368 C466.686,252.686,463.999,255.372,460.686,255.372z" class="st1"/></g></g><g><g><path d="M460.686,423.13c-3.313,0-6-2.687-6-6V271.291c0-3.313,2.687-6,6-6s6,2.687,6,6V417.13 C466.686,420.443,463.999,423.13,460.686,423.13z" class="st1"/></g></g><g><g><path d="M307.123,155.013c-3.313,0-6-2.687-6-6v-43.247c0-3.313,2.687-6,6-6s6,2.687,6,6v43.247 C313.123,152.327,310.437,155.013,307.123,155.013z" class="st23"/></g></g></g></svg>